<svg id="组_1_拷贝" data-name="组 1 拷贝" xmlns="http://www.w3.org/2000/svg" width="80" height="62" viewBox="0 0 80 62">
  <metadata><?xpacket begin="﻿" id="W5M0MpCehiHzreSzNTczkc9d"?>
<x:xmpmeta xmlns:x="adobe:ns:meta/" x:xmptk="Adobe XMP Core 5.6-c138 79.159824, 2016/09/14-01:09:01        ">
   <rdf:RDF xmlns:rdf="http://www.w3.org/1999/02/22-rdf-syntax-ns#">
      <rdf:Description rdf:about=""/>
   </rdf:RDF>
</x:xmpmeta>
<?xpacket end="w"?></metadata>
<defs>
    <style>
      .cls-1 {
        fill: #b0b8bf;
        fill-rule: evenodd;
      }
    </style>
  </defs>
  <path id="全屏" class="cls-1" d="M58.009,24.016a2,2,0,0,1-2-2V6.817L26.835,35.994H42.016a2,2,0,0,1,0,4h-19.8a1.956,1.956,0,0,1-.219.022,2,2,0,0,1-2-2v-20a2,2,0,0,1,4,0V33.178l29.14-29.14H38.013a2,2,0,0,1,0-4H57.79A1.96,1.96,0,0,1,58.009.016a2,2,0,0,1,2,2v20A2,2,0,0,1,58.009,24.016ZM34,48.241l-0.273.342a14.03,14.03,0,0,0,6.1,4.525q-0.424.6-.725,1.094a17.952,17.952,0,0,1-6.057-4.771,19.538,19.538,0,0,1-6.18,4.949q-0.273-.465-0.684-1.025a17.129,17.129,0,0,0,6.385-5.113H34Zm-1.545,9.3h-4.43v-1h4.43V54.435H28.529v-1h9v1H33.588V56.54h4.443v1H33.588v2.379h5.633v1.012H26.807V59.917h5.647V57.538Zm9.3-2.885V48.829H53.043v3.678H52.031V52.1H50.268l0.875,0.479q-0.506.725-1.073,1.5h2.905v0.943h-2.31v1.859h3.1v0.943h-3.1V61.5H49.652V57.825H46.521a5.726,5.726,0,0,1-2.365,3.746,6.005,6.005,0,0,0-.766-0.793,5.137,5.137,0,0,0,2.058-2.953h-2.96a8.788,8.788,0,0,1-1.668,3.732,9.833,9.833,0,0,0-.752-0.957Q41.75,58.755,41.75,54.653Zm10.281-3.5V49.773H42.762v1.381h9.27Zm-2.379,5.728V55.023H46.658q0.007,1.046-.048,1.859h3.042Zm-0.711-2.8q0.6-.943,1.135-1.982H45.968a13.708,13.708,0,0,1,1.224,1.422l-0.731.56h2.481Zm-3.363,2.8q0.068-.779.068-1.859H43.295V54.079h2.946q-0.458-.677-1.155-1.518l0.656-.465h-2.98v1.531a31.22,31.22,0,0,1-.144,3.254h2.96Z"/>
</svg>