<svg id="组_1" data-name="组 1" xmlns="http://www.w3.org/2000/svg" width="80" height="62" viewBox="0 0 80 62">
  <metadata><?xpacket begin="﻿" id="W5M0MpCehiHzreSzNTczkc9d"?>
<x:xmpmeta xmlns:x="adobe:ns:meta/" x:xmptk="Adobe XMP Core 5.6-c138 79.159824, 2016/09/14-01:09:01        ">
   <rdf:RDF xmlns:rdf="http://www.w3.org/1999/02/22-rdf-syntax-ns#">
      <rdf:Description rdf:about=""/>
   </rdf:RDF>
</x:xmpmeta>
<?xpacket end="w"?></metadata>
<defs>
    <style>
      .cls-1 {
        fill: #b0b8bf;
        fill-rule: evenodd;
      }
    </style>
  </defs>
  <path id="关闭" class="cls-1" d="M59.092,3.737L42.828,20,59.092,36.264a2,2,0,0,1-2.828,2.828L40,22.828,23.737,39.092a2,2,0,1,1-2.828-2.828L37.172,20,20.908,3.737A2,2,0,1,1,23.737.908L40,17.172,56.264,0.908A2,2,0,0,1,59.092,3.737ZM32.132,55.542H26.56V54.5h5.77q0.027-.294.027-2.611h-4.99V50.853h3.281q-1.176-1.292-2.01-2.078l0.793-.711q1.176,1.053,2.146,2.01l-0.875.779h3.261q1.059-1.5,1.866-2.8l1.135,0.629q-0.943,1.2-1.736,2.174h3.459v1.039H33.519q0,2.01-.02,2.611h6v1.039h-5.8a8.937,8.937,0,0,0,6.05,4.717q-0.561.574-1.012,1.107a9.806,9.806,0,0,1-5.722-4.935q-1.114,3.2-5.927,5.113-0.355-.465-0.793-0.984Q31.188,58.816,32.132,55.542Zm9.851,5.879H40.916V50.648h1.066V61.421Zm0.424-13.412q1.149,1.066,2.078,2.078l-0.889.766q-0.957-1.135-1.969-2.16Zm0.67,5.551V52.575h4.717v-2.01H48.8v2.01h2.434V53.56H48.8v5.182a1.348,1.348,0,0,1-1.545,1.5q-0.561,0-1.791-.027-0.082-.629-0.164-1.053,1.025,0.068,1.641.082a0.769,0.769,0,0,0,.848-0.875V54.708a20.655,20.655,0,0,1-4.443,4.32,7.5,7.5,0,0,0-.738-0.82,20.169,20.169,0,0,0,4.86-4.648h-4.4Zm9.01,5.824V49.9H45.223V48.87h7.93V59.439a1.689,1.689,0,0,1-1.832,1.982q-0.916,0-2.2-.027-0.055-.41-0.219-1.108,1.135,0.082,2.16.082A0.889,0.889,0,0,0,52.086,59.384Z"/>
</svg>